<?xml version="1.0" encoding="utf-8"?>
<!-- Generator: Adobe Illustrator 16.0.0, SVG Export Plug-In . SVG Version: 6.00 Build 0)  -->
<!DOCTYPE svg PUBLIC "-//W3C//DTD SVG 1.1//EN" "http://www.w3.org/Graphics/SVG/1.1/DTD/svg11.dtd">
<svg version="1.1" id="Layer_1" xmlns="http://www.w3.org/2000/svg" xmlns:xlink="http://www.w3.org/1999/xlink" x="0px" y="0px"
	 width="32px" height="48px" viewBox="0 -4 32 48" enable-background="new 0 -4 32 48" xml:space="preserve">
<g>
	<path fill="#19A912" d="M3.1,27.2c0,0,1.2-0.2,3-2C7.8,23.5,8.9,22,9.8,22c0.9,0,1.2,3.1-1.4,5.2c1.4-0.2,4.7-0.7,5.2,0.5
		c0.8,1.8,0.1,8.1-1.6,9.5c-1.4,1.1-5.9,0.8-6.8,0.5c-0.4-0.1-2.1-1-2.1-1V27.2z"/>
	<path fill="#19A912" d="M1,27.2h1v10H1c-0.6,0-1-0.5-1-1v-7.9C0,27.7,0.5,27.2,1,27.2z"/>
</g>
<g>
	<path fill="#F00813" d="M28.9,36.8c0,0-1.2,0.2-3,2c-1.7,1.7-2.8,3.2-3.7,3.2s-1.2-3.1,1.4-5.2c-1.4,0.2-4.7,0.7-5.2-0.5
		c-0.8-1.8-0.1-8.1,1.6-9.5c1.4-1.1,5.9-0.8,6.8-0.5c0.4,0.1,2.1,1,2.1,1V36.8z"/>
	<path fill="#F00813" d="M31,36.8h-1v-10h1c0.6,0,1,0.5,1,1v7.9C32,36.3,31.5,36.8,31,36.8z"/>
</g>
<g>
	<path fill="#B7B7B7" d="M3.1,3.2c0,0,1.2-0.2,3-2C7.8-0.5,8.9-2,9.8-2c0.9,0,1.2,3.1-1.4,5.2c1.4-0.2,4.7-0.7,5.2,0.5
		c0.8,1.8,0.1,8.1-1.6,9.5c-1.4,1.1-5.9,0.8-6.8,0.5c-0.4-0.1-2.1-1-2.1-1V3.2z"/>
	<path fill="#B7B7B7" d="M1,3.2h1v10H1c-0.6,0-1-0.5-1-1V4.3C0,3.7,0.5,3.2,1,3.2z"/>
</g>
<g>
	<path fill="#B7B7B7" d="M28.9,12.8c0,0-1.2,0.2-3,2c-1.7,1.7-2.8,3.2-3.7,3.2s-1.2-3.1,1.4-5.2c-1.4,0.2-4.7,0.7-5.2-0.5
		c-0.8-1.8-0.1-8.1,1.6-9.5c1.4-1.1,5.9-0.8,6.8-0.5c0.4,0.1,2.1,1,2.1,1V12.8z"/>
	<path fill="#B7B7B7" d="M31,12.8h-1v-10h1c0.6,0,1,0.5,1,1v7.9C32,12.3,31.5,12.8,31,12.8z"/>
</g>
</svg>
